<?xml version="1.0" encoding="utf-8"?>
<!-- Generator: Adobe Illustrator 15.1.0, SVG Export Plug-In . SVG Version: 6.00 Build 0)  -->
<!DOCTYPE svg PUBLIC "-//W3C//DTD SVG 1.1//EN" "http://www.w3.org/Graphics/SVG/1.1/DTD/svg11.dtd">
<svg version="1.1" id="Layer_1" xmlns="http://www.w3.org/2000/svg" xmlns:xlink="http://www.w3.org/1999/xlink" x="0px" y="0px"
	 width="1024px" height="1024px" viewBox="0 0 1024 1024" enable-background="new 0 0 1024 1024" xml:space="preserve">
<path opacity="0.75" fill="#4789C8" enable-background="new    " d="M512.384,78.663c-239.357,0-434.1,194.743-434.1,434.1
	s194.743,434.101,434.1,434.101c239.356,0,434.101-194.743,434.101-434.101C946.483,273.405,751.74,78.663,512.384,78.663z"/>
<path fill="#FFFFFF" d="M512.384,1006.738c-272.38,0-493.976-221.597-493.976-493.977S240.004,18.787,512.384,18.787
	s493.977,221.596,493.977,493.976S784.764,1006.738,512.384,1006.738z M512.384,78.663c-239.357,0-434.1,194.743-434.1,434.1
	s194.743,434.101,434.1,434.101c239.356,0,434.101-194.743,434.101-434.101C946.483,273.405,751.74,78.663,512.384,78.663z"/>
<g>
	<polygon fill="#FFFFFF" points="358.572,782.203 358.572,243.321 762.733,512.763 	"/>
</g>
</svg>
