<?xml version="1.0" encoding="utf-8"?>
<!-- Generator: Adobe Illustrator 16.0.0, SVG Export Plug-In . SVG Version: 6.00 Build 0)  -->
<!DOCTYPE svg PUBLIC "-//W3C//DTD SVG 1.1//EN" "http://www.w3.org/Graphics/SVG/1.1/DTD/svg11.dtd">
<svg version="1.1" id="Layer_1" xmlns="http://www.w3.org/2000/svg" xmlns:xlink="http://www.w3.org/1999/xlink" x="0px" y="0px"
	 width="841.89px" height="595.276px" viewBox="0 0 841.89 595.276" enable-background="new 0 0 841.89 595.276"
	 xml:space="preserve">
<path d="M377.667,181.815c-0.032-0.025-0.075-0.056-0.142-0.099c-28.308-7.367-59.25-0.256-81.494,18.737
	c-12.581,10.758-22.848,22.985-37.085,31.769c-34.163,21.077-69.392,16.391-107.505,19.222
	c-30.831,2.29-66.797,11.358-82.189,40.998c-20.881,40.211,9.148,98.139,27.424,134.111c19.213,37.814,48.756,81.615,97.825,63.873
	c32.875-11.888,52.709-35.228,74.23-60.987c22.2-26.572,51.687-28.859,83.589-31.727c10.505-0.943,20.667-2.123,30.448-6.426
	c3.617-1.592,11.387-6.597,14.084-9.543c2.698-2.946,12.354-15.711,8.086-16.152c-21.566,9.469-43.18,16.469-63.959-0.867
	c-5.761-4.792-11.348-11.149-11.91-18.936c-1.579-12.656,5.806-25.96,16.463-33.392c8.906-6.21,21.553-15.474,33.723-16.371
	c2.156-0.159-0.946-4.722-2.397-8.021c-2.644-6.009-5.804-20.443-10.84-24.634c-2.444-5.555-8.766-0.881-12.293,0.205
	c-10.624,2.5-24.081,2.577-31.633-6.771c-5-6.158-5.434-13.73-2.71-20.734c3.964-8.477,16.982-24.028,29.203-31.305
	C360.806,197.488,388.286,188.938,377.667,181.815"/>
<path fill="#FFFFFF" d="M252.481,359.22c0.578,1.313-0.024,2.862-1.338,3.44l-24.691,10.864c-1.315,0.579-2.863-0.023-3.441-1.338
	l-21.267-48.332c-0.578-1.314,0.024-2.862,1.338-3.441l24.691-10.864c1.315-0.578,2.863,0.024,3.441,1.339L252.481,359.22z"/>
<path d="M752.624,126.583c-2.386,1.049-5.181-0.038-6.229-2.422c-1.05-2.386,0.037-5.181,2.422-6.231
	c2.385-1.049,5.179,0.038,6.229,2.424C756.095,122.739,755.009,125.533,752.624,126.583 M735.771,128.538
	c-2.385,1.05-5.179-0.037-6.228-2.423c-1.051-2.385,0.035-5.179,2.421-6.229s5.18,0.037,6.229,2.423
	C739.242,124.694,738.156,127.489,735.771,128.538 M719.397,130.438c-2.386,1.05-5.18-0.037-6.229-2.423
	c-1.05-2.384,0.037-5.178,2.423-6.228c2.385-1.049,5.18,0.037,6.229,2.421C722.869,126.594,721.782,129.389,719.397,130.438
	 M702.653,132.167c-2.386,1.049-5.18-0.037-6.229-2.423c-1.05-2.386,0.036-5.18,2.421-6.23c2.385-1.049,5.18,0.038,6.229,2.424
	C706.125,128.323,705.039,131.117,702.653,132.167 M685.022,134.088c-2.385,1.049-5.18-0.038-6.229-2.423
	c-1.051-2.386,0.036-5.18,2.422-6.23c2.385-1.049,5.18,0.038,6.229,2.423C688.494,130.243,687.408,133.038,685.022,134.088
	 M667.438,136.468c-2.385,1.05-5.18-0.038-6.229-2.423c-1.05-2.386,0.036-5.181,2.423-6.23c2.385-1.05,5.179,0.037,6.229,2.423
	S669.822,135.418,667.438,136.468 M776.228,126.173l-0.28-0.083c-1.172-0.349-2.029-0.652-2.867-1.013
	c-1.663-0.719-3.438-1.745-5.752-3.326c-1.358-0.93-2.515-1.803-2.882-3.071c-0.186-0.645-0.174-1.431-0.162-2.191
	c0.015-0.973,0.029-1.892-0.347-2.587c-0.82-1.516-3.296-1.553-5.698-1.589v0.007c-0.017-0.001-0.031-0.007-0.05-0.005l-5.828,0.663
	l-0.273-2.571c0.602-0.249,3.304-1.232,3.714-1.942c0.414-0.719-0.144-5.62-1.826-6.698c-1.681-1.078-3.591-1.086-4.905-0.88
	c-1.313,0.206-4.396,1.472-5.111,2.125c-0.716,0.653-1.187,5.288-0.778,5.972c0.406,0.684,3.104,2.113,4.559,2.038
	c0.067-0.003,0.122-0.008,0.185-0.01l0.261,2.441l-11.967,1.361c-0.376-0.927-0.864-1.722-1.412-1.64l-0.103-0.951
	c0.14-0.059,0.392-0.155,0.702-0.28c1.031-0.412,2.696-1.117,3.013-1.662c0.385-0.67-0.069-4.939-1.482-6.408h-0.001
	c-0.109-0.113-0.221-0.215-0.341-0.291c-1.683-1.079-3.593-1.087-4.907-0.88c-1.312,0.205-4.397,1.471-5.111,2.124
	c-0.716,0.653-1.186,5.288-0.778,5.973c0.405,0.683,3.104,2.113,4.56,2.037c0.065-0.004,0.121-0.007,0.183-0.011l0.089,0.838
	c-0.396,0.292-0.635,1.041-0.777,1.876l-10.673,1.213c-0.372-0.897-0.848-1.653-1.383-1.572l-0.103-0.951
	c0.104-0.043,0.263-0.105,0.465-0.185c0.988-0.39,2.911-1.168,3.249-1.757c0.385-0.67-0.066-4.939-1.482-6.407l0.001-0.001
	c0,0-0.001,0-0.002-0.001c-0.107-0.113-0.221-0.213-0.34-0.29c-1.683-1.077-3.593-1.087-4.905-0.881
	c-1.314,0.207-4.397,1.472-5.112,2.126c-0.716,0.653-1.186,5.288-0.779,5.971c0.407,0.685,3.104,2.114,4.56,2.039
	c0.065-0.004,0.121-0.007,0.184-0.01l0.09,0.834c-0.385,0.286-0.62,0.999-0.765,1.805l-10.608,1.206
	c-0.381-0.965-0.88-1.816-1.446-1.731l-0.102-0.951c0.602-0.25,3.306-1.233,3.713-1.943c0.386-0.669-0.068-4.937-1.48-6.407
	c0,0-0.001,0-0.001-0.001c-0.109-0.113-0.221-0.214-0.342-0.291c-1.682-1.077-3.593-1.086-4.904-0.88
	c-1.315,0.206-4.399,1.472-5.113,2.126c-0.716,0.653-1.186,5.288-0.778,5.971c0.404,0.684,3.103,2.113,4.559,2.038
	c0.066-0.003,0.123-0.007,0.185-0.011l0.09,0.836c-0.411,0.304-0.654,1.1-0.795,1.974l-10.397,1.183
	c-0.376-0.941-0.868-1.755-1.425-1.671l-0.103-0.951c0.123-0.051,0.33-0.132,0.589-0.235c0.038-0.015,0.074-0.028,0.115-0.045
	h-0.001c1.03-0.412,2.698-1.118,3.011-1.664c0.388-0.669-0.067-4.938-1.481-6.407v-0.001c-0.109-0.112-0.221-0.214-0.341-0.29
	c-1.682-1.079-3.594-1.086-4.906-0.88c-1.313,0.206-4.396,1.471-5.112,2.125c-0.715,0.652-1.185,5.287-0.778,5.972
	c0.406,0.683,3.104,2.112,4.559,2.038c0.065-0.003,0.122-0.007,0.185-0.011l0.09,0.836c-0.402,0.297-0.645,1.06-0.785,1.91
	l-10.663,1.212c-0.384-1.015-0.902-1.941-1.494-1.85l-0.098-0.952c0.121-0.05,0.332-0.132,0.593-0.237
	c1.017-0.402,2.793-1.14,3.12-1.705c0.414-0.721-0.143-5.622-1.823-6.699c-1.683-1.077-3.595-1.086-4.908-0.881
	c-1.312,0.206-4.396,1.473-5.112,2.126c-0.715,0.653-1.183,5.287-0.776,5.971c0.405,0.685,3.102,2.114,4.558,2.039
	c0.067-0.003,0.123-0.007,0.186-0.011l0.09,0.835c-0.433,0.319-0.676,1.178-0.814,2.102l-11.214,1.275
	c-0.004,0.001-0.007,0.003-0.01,0.003c-0.02,0.003-0.037,0.013-0.056,0.019c-0.03,0.008-0.062,0.015-0.088,0.031
	c-0.002,0.001-0.005,0.001-0.006,0.002c-0.017,0.01-0.027,0.027-0.043,0.039c-0.022,0.019-0.047,0.036-0.063,0.059
	c-0.017,0.021-0.024,0.044-0.035,0.066c-0.011,0.023-0.025,0.044-0.031,0.069c-0.008,0.028-0.007,0.058-0.008,0.086
	c-0.001,0.021-0.007,0.039-0.005,0.06c0,0.002,0.002,0.003,0.002,0.006c0.003,0.026,0.016,0.05,0.023,0.076
	c0.01,0.023,0.014,0.049,0.025,0.071c0.002,0.001,0.002,0.004,0.003,0.006c0.563,0.926,0.501,2.159,0.44,3.404l-0.007,0.124
	c-0.049,0.993-0.095,1.93-0.303,2.828c-0.272,1.169-0.835,2.3-1.402,3.349c-0.599,1.109-3.538,5.12-5.15,7.031l-0.033-0.075
	L318.232,279.143c0,0-0.945,0.332-1.446,2.816c-0.501,2.484,2.574,11.193,4.843,16.735c2.27,5.542,7.314,14.727,9.154,16.434
	c1.841,1.706,3.87,0.98,3.87,0.98L656.689,170.4l-0.035-0.079c2.978-0.747,8.989-1.213,11.457-0.637
	c0.896,0.209,1.777,0.396,2.649,0.582c1.812,0.385,3.523,0.748,5.229,1.277c2.521,0.778,5.035,1.932,7.376,3.062
	c0.025,0.012,0.051,0.012,0.076,0.018c0.021,0.005,0.039,0.012,0.06,0.014c0.066,0.006,0.133,0.001,0.192-0.026
	c0.05-0.022,0.097-0.054,0.136-0.098c1.541-1.732,3.466-3.111,5.467-4.487c7.293-5.019,15.087-9.71,23.167-13.943
	c16.135-8.453,34.293-15.645,55.511-21.983c0.002,0,0.003,0,0.005,0c3.2-0.736,6.509-1.497,9.576-2.765
	c0.045-0.018,0.09-0.037,0.134-0.056c0.037-0.017,0.075-0.034,0.113-0.053c0.973-0.474,2.006-1.708,1.935-2.723
	C779.645,127.182,777.83,126.646,776.228,126.173"/>
<path fill="#DADADA" d="M194.653,337.323c0.173,0.396-0.008,0.859-0.402,1.033l-12.793,5.625c-0.394,0.173-0.859-0.007-1.033-0.402
	l-2.335-5.311c-0.173-0.395,0.007-0.859,0.402-1.032l12.794-5.625c0.394-0.173,0.859,0.007,1.032,0.402L194.653,337.323z"/>
<path fill="#706F6F" d="M191.957,335.339c0.205,0.465-0.007,1.009-0.473,1.214l-9.484,4.17c-0.465,0.205-1.01-0.006-1.214-0.472
	c-0.205-0.466,0.007-1.009,0.472-1.213l9.485-4.172C191.209,334.662,191.752,334.874,191.957,335.339"/>
<path fill="#DADADA" d="M197.806,344.489c0.173,0.396-0.008,0.859-0.402,1.033l-12.793,5.625c-0.394,0.174-0.859-0.007-1.033-0.402
	l-2.335-5.311c-0.173-0.396,0.007-0.859,0.402-1.032l12.794-5.626c0.394-0.173,0.859,0.008,1.032,0.402L197.806,344.489z"/>
<path fill="#706F6F" d="M195.11,342.505c0.205,0.466-0.007,1.009-0.472,1.214l-9.485,4.172c-0.467,0.204-1.01-0.008-1.215-0.474
	c-0.204-0.465,0.007-1.01,0.473-1.213l9.485-4.172C194.362,341.829,194.905,342.04,195.11,342.505"/>
<path fill="#DADADA" d="M200.958,351.655c0.174,0.395-0.007,0.859-0.402,1.033l-12.793,5.624c-0.394,0.174-0.859-0.007-1.032-0.4
	l-2.335-5.312c-0.174-0.395,0.007-0.859,0.401-1.033l12.793-5.624c0.395-0.174,0.859,0.008,1.033,0.401L200.958,351.655z"/>
<path fill="#706F6F" d="M198.263,349.671c0.205,0.466-0.007,1.009-0.473,1.214l-9.485,4.171c-0.465,0.204-1.009-0.008-1.213-0.473
	c-0.205-0.465,0.006-1.009,0.472-1.214l9.485-4.17C197.515,348.995,198.058,349.206,198.263,349.671"/>
<path fill="#DADADA" d="M204.112,358.82c0.174,0.395-0.007,0.859-0.402,1.033l-12.793,5.625c-0.395,0.174-0.86-0.007-1.033-0.401
	l-2.335-5.311c-0.173-0.395,0.008-0.859,0.402-1.033l12.793-5.625c0.395-0.173,0.86,0.009,1.033,0.402L204.112,358.82z"/>
<path fill="#706F6F" d="M201.417,356.837c0.205,0.466-0.007,1.009-0.473,1.214l-9.485,4.171c-0.465,0.204-1.009-0.008-1.214-0.473
	c-0.205-0.467,0.007-1.011,0.473-1.214l9.485-4.171C200.669,356.161,201.212,356.372,201.417,356.837"/>
<path fill="#DADADA" d="M207.266,365.987c0.174,0.394-0.007,0.858-0.402,1.032l-12.794,5.625c-0.394,0.174-0.859-0.008-1.032-0.401
	l-2.335-5.311c-0.173-0.395,0.008-0.859,0.402-1.032l12.793-5.625c0.395-0.174,0.859,0.007,1.033,0.401L207.266,365.987z"/>
<path fill="#706F6F" d="M204.57,364.003c0.204,0.466-0.007,1.009-0.473,1.214l-9.485,4.171c-0.466,0.204-1.009-0.007-1.214-0.474
	c-0.205-0.466,0.007-1.009,0.472-1.213l9.486-4.171C203.822,363.326,204.366,363.537,204.57,364.003"/>
<path fill="#DADADA" d="M210.418,373.153c0.173,0.396-0.008,0.859-0.402,1.033l-12.793,5.625c-0.395,0.173-0.859-0.008-1.033-0.402
	l-2.335-5.311c-0.173-0.395,0.007-0.859,0.402-1.032l12.793-5.626c0.395-0.174,0.859,0.007,1.032,0.402L210.418,373.153z"/>
<path fill="#706F6F" d="M207.723,371.169c0.205,0.465-0.007,1.009-0.472,1.213l-9.486,4.172c-0.466,0.204-1.009-0.007-1.214-0.473
	c-0.204-0.466,0.007-1.009,0.473-1.214l9.485-4.171C206.975,370.492,207.518,370.704,207.723,371.169"/>
<path fill="#FFFFFF" d="M277.959,340.674c1.408,3.201-0.046,6.938-3.247,8.346c-3.202,1.407-6.939-0.047-8.346-3.248l-15.848-36.044
	c-1.408-3.2,0.046-6.938,3.247-8.345c3.202-1.407,6.939,0.047,8.345,3.248L277.959,340.674z"/>
<path d="M223.037,314.904c-3.201,1.407-4.655,5.145-3.247,8.345l15.848,36.045c1.407,3.2,5.144,4.655,8.345,3.248
	c3.201-1.408,4.656-5.145,3.248-8.347l-15.849-36.043C229.975,314.951,226.238,313.496,223.037,314.904"/>
<path d="M210.243,320.534c-3.201,1.407-4.655,5.145-3.248,8.345l15.849,36.045c1.407,3.199,5.144,4.654,8.345,3.248
	c3.201-1.408,4.656-5.145,3.248-8.347l-15.849-36.043C217.181,320.58,213.443,319.125,210.243,320.534"/>
<path fill="#FFFFFF" d="M325.123,327.257c0.578,1.313-0.024,2.862-1.338,3.44l-24.691,10.864c-1.315,0.579-2.863-0.023-3.441-1.338
	l-21.267-48.332c-0.578-1.314,0.024-2.862,1.338-3.441l24.691-10.864c1.315-0.579,2.863,0.024,3.441,1.338L325.123,327.257z"/>
<path d="M295.678,282.941c-3.201,1.407-4.655,5.144-3.248,8.344l15.849,36.045c1.407,3.2,5.144,4.655,8.345,3.248
	c3.201-1.408,4.656-5.145,3.248-8.347l-15.849-36.042C302.616,282.987,298.879,281.532,295.678,282.941"/>
<path d="M282.883,288.571c-3.201,1.407-4.655,5.144-3.248,8.344l15.849,36.045c1.407,3.2,5.144,4.654,8.345,3.248
	c3.201-1.408,4.656-5.145,3.248-8.347l-15.849-36.042C289.821,288.617,286.084,287.162,282.883,288.571"/>
<path fill="#FFFFFF" d="M246.2,391.803c1.451,3.3-0.048,7.151-3.348,8.604c-3.3,1.449-7.151-0.049-8.602-3.349
	c-1.451-3.302,0.048-7.151,3.348-8.603C240.898,387.004,244.749,388.504,246.2,391.803"/>
<path fill="#FFFFFF" d="M174.708,327.196c0.649,1.477-0.022,3.199-1.499,3.85c-1.476,0.649-3.199-0.021-3.849-1.499
	c-0.649-1.477,0.021-3.2,1.498-3.849C172.334,325.047,174.058,325.718,174.708,327.196"/>
<path fill="#FFFFFF" d="M201.391,387.837c0.649,1.477-0.022,3.2-1.499,3.851c-1.476,0.648-3.199-0.022-3.849-1.499
	c-0.649-1.478,0.021-3.2,1.498-3.85S200.741,386.361,201.391,387.837"/>
<path fill="#FFFFFF" d="M234.732,433.24c1.451,3.3-0.048,7.149-3.348,8.602c-3.299,1.451-7.151-0.049-8.602-3.348
	c-1.451-3.3,0.048-7.15,3.348-8.603C229.43,428.441,233.281,429.939,234.732,433.24"/>
<path fill="#FFFFFF" d="M195.494,441.062c-2.683,7.343-5.938,11.666-9.105,14.188c-3.166,2.525-5.509,0.914-5.509,0.914
	c-2.09-0.463-3.194-2.115-3.956-4.422c-0.763-2.306-0.926-8.397,0.205-13.548s3.881-11.769,4.155-13.146
	c0.275-1.378,1.4-2.25,2.817-2.749c1.417-0.495,10.853,1.519,13.955,3.424C201.158,427.628,198.177,433.719,195.494,441.062
	 M200.548,407.65c-4.695-4.101-9.893-2.191-12.987-0.076c-3.094,2.117-8.16,14.908-10.257,21.866
	c-2.097,6.959-4.141,21.188-2.157,27.988c1.984,6.801,3.223,6.758,3.923,7.205c0,0,2.566,1.262,7.896-4.353
	c5.329-5.614,12.569-18.607,14.913-31.585C204.222,415.717,205.242,411.748,200.548,407.65"/>
<path fill="#FFFFFF" d="M195.375,432.906c-0.306,1.121-2.994,1.368-6.001,0.542c-3.009-0.82-5.197-2.398-4.89-3.52
	c0.306-1.124,2.994-1.369,6.001-0.546C193.494,430.206,195.682,431.781,195.375,432.906"/>
<polygon fill="#FFFFFF" points="395.73,288.46 396.646,288.045 381.085,252.658 380.16,253.047 "/>
<polygon fill="#FFFFFF" points="430.273,272.823 431.188,272.409 416.03,237.933 415.104,238.322 "/>
<polygon fill="#FFFFFF" points="406.639,283.522 407.553,283.108 392.121,248.007 391.195,248.397 "/>
<polygon fill="#FFFFFF" points="385.381,293.145 386.296,292.731 370.616,257.07 369.69,257.459 "/>
<polygon fill="#FFFFFF" points="418.037,278.362 418.951,277.949 403.65,243.15 402.725,243.539 "/>
<polygon fill="#FFFFFF" points="342.098,312.74 343.013,312.325 326.83,275.521 325.905,275.911 "/>
<polygon fill="#FFFFFF" points="349.859,309.226 350.774,308.812 334.681,272.212 333.756,272.602 "/>
<path fill="#FFFFFF" d="M334.539,316.142c0.07-0.02,0.115-0.033,0.115-0.033l0.807-0.364l-16.271-37.005l-0.925,0.39
	L334.539,316.142z"/>
<polygon fill="#FFFFFF" points="366.572,301.661 367.486,301.247 351.587,265.087 350.663,265.478 "/>
<polygon fill="#FFFFFF" points="375.732,297.514 376.647,297.099 360.854,261.184 359.929,261.573 "/>
<polygon fill="#FFFFFF" points="358.041,305.522 358.955,305.108 342.958,268.724 342.032,269.115 "/>
<polygon fill="#FFFFFF" points="471.464,254.176 472.377,253.763 457.696,220.375 456.771,220.764 "/>
<polygon fill="#FFFFFF" points="557.929,215.034 558.767,214.655 545.089,183.547 544.24,183.905 "/>
<polygon fill="#FFFFFF" points="538.559,223.802 539.397,223.422 525.495,191.804 524.646,192.162 "/>
<polygon fill="#FFFFFF" points="578.557,205.696 579.396,205.316 565.957,174.754 565.108,175.111 "/>
<polygon fill="#FFFFFF" points="600.442,195.789 601.281,195.409 588.099,165.423 587.248,165.781 "/>
<polygon fill="#FFFFFF" points="610.876,155.825 623.799,185.215 624.638,184.836 611.726,155.467 "/>
<polygon fill="#FFFFFF" points="635.593,145.246 648.502,174.642 650.954,173.553 638.059,144.177 "/>
<polygon fill="#FFFFFF" points="457.058,260.698 457.973,260.284 443.124,226.515 442.198,226.906 "/>
<polygon fill="#FFFFFF" points="520.239,232.096 521.078,231.716 506.963,199.614 506.113,199.971 "/>
<polygon fill="#FFFFFF" points="486.916,247.18 487.83,246.767 473.328,213.787 472.405,214.176 "/>
<polygon fill="#FFFFFF" points="443.281,266.935 444.195,266.521 429.188,232.388 428.261,232.778 "/>
<polygon fill="#FFFFFF" points="502.999,239.9 503.914,239.487 489.598,206.93 488.674,207.32 "/>
<g>
	<defs>
		<rect id="SVGID_1_" width="841.89" height="595.276"/>
	</defs>
	<clipPath id="SVGID_2_">
		<use xlink:href="#SVGID_1_"  overflow="visible"/>
	</clipPath>
	<path clip-path="url(#SVGID_2_)" fill="#FFFFFF" d="M585.294,184.459c0.552,1.252-0.016,2.712-1.27,3.263
		c-1.251,0.55-2.711-0.019-3.262-1.27c-0.55-1.252,0.019-2.712,1.27-3.263C583.285,182.639,584.745,183.208,585.294,184.459"/>
	<path clip-path="url(#SVGID_2_)" fill="#FFFFFF" d="M543.806,202.513c0.552,1.252-0.017,2.713-1.269,3.262
		c-1.251,0.551-2.713-0.017-3.262-1.269c-0.551-1.251,0.018-2.712,1.269-3.262C541.796,200.694,543.256,201.262,543.806,202.513"/>
	<path clip-path="url(#SVGID_2_)" fill="#FFFFFF" d="M506.979,218.581c0.55,1.251-0.018,2.712-1.271,3.262
		c-1.25,0.55-2.711-0.018-3.262-1.269c-0.549-1.252,0.018-2.713,1.271-3.262C504.968,216.761,506.428,217.329,506.979,218.581"/>
	<path clip-path="url(#SVGID_2_)" fill="#FFFFFF" d="M474.201,232.992c0.551,1.251-0.018,2.712-1.27,3.262
		c-1.25,0.55-2.711-0.018-3.262-1.269c-0.55-1.252,0.019-2.712,1.27-3.263C472.191,231.172,473.652,231.74,474.201,232.992"/>
	<path clip-path="url(#SVGID_2_)" fill="#FFFFFF" d="M434.868,259.092c0.551,1.251-0.02,2.711-1.27,3.261
		c-1.252,0.551-2.712-0.018-3.263-1.269c-0.55-1.252,0.018-2.712,1.27-3.262C432.856,257.271,434.317,257.839,434.868,259.092"/>
	<path clip-path="url(#SVGID_2_)" fill="#FFFFFF" d="M395.803,267.212c0.55,1.252-0.018,2.713-1.269,3.262
		c-1.252,0.551-2.713-0.018-3.263-1.269c-0.55-1.252,0.018-2.712,1.27-3.262C393.792,265.392,395.253,265.96,395.803,267.212"/>
	<path clip-path="url(#SVGID_2_)" fill="#FFFFFF" d="M375.146,276.295c0.55,1.251-0.018,2.712-1.269,3.262
		c-1.252,0.551-2.712-0.018-3.262-1.27c-0.551-1.251,0.017-2.712,1.269-3.262C373.136,274.476,374.596,275.043,375.146,276.295"/>
	<path clip-path="url(#SVGID_2_)" fill="#FFFFFF" d="M356.703,284.405c0.55,1.251-0.018,2.711-1.27,3.262
		c-1.251,0.55-2.711-0.018-3.262-1.27c-0.55-1.252,0.018-2.712,1.27-3.262C354.692,282.585,356.152,283.153,356.703,284.405"/>
	<path clip-path="url(#SVGID_2_)" fill="#FFFFFF" d="M340.367,291.588c0.551,1.251-0.018,2.711-1.269,3.262
		c-1.252,0.551-2.712-0.018-3.262-1.27c-0.551-1.251,0.017-2.711,1.269-3.262C338.356,289.767,339.817,290.336,340.367,291.588"/>
	<path clip-path="url(#SVGID_2_)" fill="#FFFFFF" d="M428.394,244.08c0.549,1.251-0.02,2.711-1.271,3.261
		c-1.252,0.551-2.712-0.018-3.262-1.269c-0.551-1.252,0.017-2.712,1.269-3.263C426.382,242.259,427.842,242.828,428.394,244.08"/>
	<path clip-path="url(#SVGID_2_)" fill="#FFFFFF" d="M666.99,135.856c-0.004,0.002-0.008,0.004-0.012,0.005l-27.25,11.06
		L188.465,337.376c-0.234,0.098-0.504-0.012-0.603-0.245c-0.099-0.235-0.01-0.481,0.245-0.604L639.376,146.07l27.256-11.063
		c0.237-0.095,0.505,0.018,0.6,0.254C667.326,135.493,667.218,135.756,666.99,135.856"/>
	<path clip-path="url(#SVGID_2_)" fill="#FFFFFF" d="M684.453,133.904c-0.003,0.001-0.004,0.002-0.007,0.003l-42.81,17.817
		L191.512,344.488c-0.187,0.081-0.404-0.006-0.483-0.193c-0.08-0.186,0.005-0.4,0.19-0.481c0.001-0.001,0.002-0.001,0.003-0.002
		l450.129-192.766l42.813-17.819c0.188-0.078,0.402,0.01,0.481,0.198C684.723,133.61,684.638,133.823,684.453,133.904"/>
	<path clip-path="url(#SVGID_2_)" fill="#FFFFFF" d="M703.372,131.07c-0.001,0-0.002,0.001-0.002,0.001l-59.628,25.715
		L194.658,351.354c-0.164,0.071-0.353-0.004-0.424-0.167c-0.071-0.163,0.003-0.352,0.166-0.424h0.001l449.086-194.569l59.628-25.715
		c0.163-0.071,0.353,0.004,0.423,0.168C703.608,130.81,703.534,130.999,703.372,131.07"/>
	<path clip-path="url(#SVGID_2_)" fill="#FFFFFF" d="M717.434,130.447h-0.002l-71.383,31.009L197.609,358.635
		c-0.116,0.051-0.252-0.002-0.303-0.118c-0.051-0.117,0.001-0.252,0.118-0.305l448.44-197.179l71.384-31.009
		c0.117-0.051,0.253,0.002,0.303,0.119C717.602,130.261,717.549,130.396,717.434,130.447"/>
	<path clip-path="url(#SVGID_2_)" fill="#FFFFFF" d="M200.953,365.667c-0.093,0.041-0.201-0.001-0.243-0.094
		c-0.041-0.093,0.001-0.202,0.094-0.243l447.197-199.148l87.768-38.086c0.094-0.041,0.202,0.002,0.242,0.095
		c0.04,0.094-0.002,0.202-0.095,0.243h-0.001l-87.765,38.086L200.953,365.667L200.953,365.667"/>
	<path clip-path="url(#SVGID_2_)" fill="#FFFFFF" d="M203.98,372.836c-0.069,0.03-0.15,0-0.181-0.07
		c-0.032-0.068-0.001-0.15,0.069-0.182l446.039-201.783l102.465-44.422c0.07-0.031,0.151,0.002,0.181,0.072
		c0.03,0.07-0.001,0.15-0.07,0.181h-0.002l-102.462,44.422L203.98,372.836C203.981,372.836,203.98,372.836,203.98,372.836"/>
	<path clip-path="url(#SVGID_2_)" fill="#FFFFFF" d="M314.568,352.355c-0.06,0.036-0.122,0.069-0.188,0.098l-53.399,23.289
		c-0.088,0.039-0.179,0.069-0.273,0.091l-61.685,14.646c-0.865,0.206-1.735-0.33-1.94-1.196c-0.206-0.867,0.332-1.733,1.196-1.94
		l61.545-14.611l53.267-23.232c0.816-0.355,1.766,0.018,2.122,0.832C315.54,351.08,315.251,351.944,314.568,352.355"/>
</g>
</svg>
